<?xml version="1.0" encoding="utf-8"?>
<!-- Svg Vector Icons : http://www.onlinewebfonts.com/icon -->
<!DOCTYPE svg PUBLIC "-//W3C//DTD SVG 1.1//EN" "http://www.w3.org/Graphics/SVG/1.1/DTD/svg11.dtd">
<svg version="1.1" xmlns="http://www.w3.org/2000/svg" xmlns:xlink="http://www.w3.org/1999/xlink" x="0px" y="0px" viewBox="0 0 256 256" enable-background="new 0 0 256 256" xml:space="preserve">
<metadata> Svg Vector Icons : http://www.onlinewebfonts.com/icon </metadata>
<g><g><path fill="#000000" d="M81,137.6L81,137.6L81,137.6z"/><path fill="#000000" d="M80.7,139.3L80.7,139.3L80.7,139.3z"/><path fill="#000000" d="M47.2,52.4"/><path fill="#000000" d="M213.9,20.3c-0.1-0.1-0.2-0.3-0.4-0.4c-6.1-6.1-14.5-9.9-23.8-9.9H66.3c-9.3,0-17.7,3.8-23.9,9.9l0,0c-6.1,6.1-9.9,14.6-9.9,23.8v168.4c0,9.2,3.8,17.7,9.9,23.8l0,0h0v0c6.1,6.1,14.6,9.9,23.8,9.9H159c1.9,0,3.6-0.8,4.7-2.1l57.4-54.6c1.4-1.2,2.3-3,2.3-5V43.8C223.4,34.7,219.8,26.4,213.9,20.3z M210.6,181.6l-54.2,51.5h-2.1v-43.6c0-3.9,1.4-7.3,3.8-9.7v0v0c2.4-2.4,5.8-3.8,9.7-3.8h42.7L210.6,181.6L210.6,181.6z M210.6,163.2h-42.7c-7.4,0-14,2.9-18.8,7.6v0c-4.7,4.7-7.6,11.3-7.6,18.8v43.6H66.3c-5.8,0-11-2.4-14.8-6.1l0,0c-3.8-3.8-6.1-9-6.1-14.8V43.8c0-5.8,2.3-11,6.1-14.8l0,0v0c3.8-3.8,9-6.1,14.8-6.1h123.4c5.7,0,11,2.4,14.8,6.1c0.1,0.1,0.2,0.2,0.3,0.3c3.6,3.8,5.9,8.9,5.9,14.5L210.6,163.2L210.6,163.2z"/><path fill="#000000" d="M78,170.3c-3.6,0-6.4-2.9-6.4-6.4s2.9-6.4,6.4-6.4h50.6c3.5,0,6.4,2.9,6.4,6.4s-2.9,6.4-6.4,6.4H78L78,170.3z"/><path fill="#000000" d="M78,138.8c-3.6,0-6.4-2.9-6.4-6.4c0-3.5,2.9-6.4,6.4-6.4h50.6c3.5,0,6.4,2.9,6.4,6.4c0,3.6-2.9,6.4-6.4,6.4H78L78,138.8z"/><path fill="#000000" d="M78,107.3c-3.6,0-6.4-2.9-6.4-6.4s2.9-6.4,6.4-6.4h114.9c3.6,0,6.4,2.9,6.4,6.4c0,3.6-2.9,6.4-6.4,6.4H78L78,107.3z"/><path fill="#000000" d="M78,75.7c-3.6,0-6.4-2.9-6.4-6.4c0-3.5,2.9-6.4,6.4-6.4h114.9c3.6,0,6.4,2.9,6.4,6.4c0,3.5-2.9,6.4-6.4,6.4H78L78,75.7z"/></g></g>
</svg>